<svg width="16" height="21" viewBox="0 0 16 21" fill="none" xmlns="http://www.w3.org/2000/svg">
    <g clip-path="url(#clip0_1039_3221)">
        <path d="M7.6359 13.5315H14.395C15.0824 13.5315 15.241 13.6989 15.1661 14.3642C14.9958 15.8346 14.3809 17.2181 13.4036 18.3298C12.1704 19.8194 10.3978 20.7603 8.47308 20.9471C6.60327 21.1865 4.7125 20.7043 3.18563 19.5988C1.76334 18.6005 0.726084 17.1449 0.246689 15.4746C0.129204 15.0899 0.0509628 14.6942 0.0131598 14.2937C-0.0397147 13.7562 0.193814 13.5315 0.740184 13.5315H7.6359Z"
              fill="white"/>
        <path d="M0 6.33173V0.546372C0 0.0132207 0.0264373 -0.00881037 0.541964 2.04984e-06C2.19066 0.032078 3.76179 0.706085 4.92121 1.87867C6.08063 3.05126 6.73686 4.6299 6.75031 6.27885C6.75031 8.2308 6.75031 10.1872 6.75031 12.1435C6.75031 12.6943 6.58288 12.8617 6.0277 12.8617H0.740243C0.158623 12.8617 0.0132186 12.7119 0.00881241 12.1127L0 6.33173Z"
              fill="white"/>
        <path d="M7.94434 7.89593C7.94434 7.32753 7.94434 6.76353 7.94434 6.19954C7.94434 5.75892 8.05009 5.66639 8.47309 5.69282C9.92565 5.79857 11.313 6.33813 12.4553 7.24161C13.5976 8.14509 14.4422 9.37082 14.8797 10.76C15.0468 11.2012 15.1492 11.6642 15.1837 12.1347C15.1837 12.5489 14.9678 12.8661 14.5889 12.8617C13.3508 12.8617 12.1038 12.9895 10.8745 12.7868C10.0526 12.6662 9.30238 12.2513 8.76343 11.6191C8.22447 10.987 7.93341 10.1806 7.94434 9.34998C7.93993 8.86529 7.94434 8.38061 7.94434 7.89593Z"
              fill="white"/>
    </g>
    <defs>
        <clipPath id="clip0_1039_3221">
            <rect width="15.1794" height="21" fill="white"/>
        </clipPath>
    </defs>
</svg>
