<svg width="31" height="31" viewBox="0 0 31 31" fill="none" xmlns="http://www.w3.org/2000/svg">
    <path fill-rule="evenodd" clip-rule="evenodd"
          d="M15.5 31C24.0604 31 31 24.0604 31 15.5C31 6.93959 24.0604 0 15.5 0C6.93959 0 0 6.93959 0 15.5C0 24.0604 6.93959 31 15.5 31ZM25.7624 14.1833C25.7698 16.4955 25.777 18.7661 24.6488 20.7831C24.1788 21.6235 23.5981 22.3893 22.9268 23.0632L19.6752 20.5014C20.2224 20.0222 20.6879 19.451 21.0473 18.8084C21.2106 18.5165 21.3453 18.175 21.4528 17.804H15.2896V13.6244H25.7613C25.7613 13.8106 25.7618 13.9966 25.7624 14.1823L25.7624 14.1833ZM18.8846 21.0931C18.5031 21.3355 18.0945 21.539 17.6645 21.6987C16.2256 22.2332 14.6415 22.2423 13.1964 21.7244C11.7514 21.2065 10.5401 20.1956 9.78002 18.8731C9.6435 18.6356 9.52315 18.3908 9.41923 18.1404L6.03393 20.5853C6.08814 20.6874 6.14412 20.7886 6.20187 20.8891C7.44624 23.0543 9.42937 24.7093 11.7952 25.5572C14.1611 26.4051 16.7547 26.3902 19.1105 25.5152C20.235 25.0975 21.2702 24.4969 22.1777 23.7461L18.8562 21.1292L18.8846 21.0931ZM5.60071 19.6647C4.83193 17.7985 4.61967 15.7422 5.00542 13.7436C5.16137 12.9356 5.4117 12.1545 5.74774 11.4146L9.24593 13.7467C9.16497 13.9954 9.09912 14.2498 9.04914 14.5087C8.86501 15.4627 8.90396 16.4383 9.15391 17.3631L9.02831 17.1892L5.60071 19.6647ZM9.63816 12.8064C10.051 12.0038 10.6335 11.2905 11.3539 10.7186C12.5529 9.76684 14.0553 9.2694 15.5914 9.3156C17.1275 9.3618 18.5967 9.94862 19.7351 10.9707L22.5005 7.95109C20.6366 6.27771 18.2313 5.31696 15.7164 5.24132C13.2015 5.16568 10.7417 5.98011 8.77869 7.53838C7.73171 8.36949 6.8626 9.38315 6.20779 10.5195L9.63816 12.8064Z"
          fill="white"/>
</svg>
