<svg width="44" height="44" viewBox="0 0 44 44" fill="none" xmlns="http://www.w3.org/2000/svg">
    <path d="M33.2027 21.8035C33.2027 28.0992 28.0992 33.1818 21.8244 33.1818C15.5287 33.1818 10.4461 28.0992 10.4461 21.8035C10.4461 21.0505 10.5089 20.3185 10.6553 19.6282H3V34.7505C3 37.9925 5.63542 40.6489 8.89832 40.6489H34.7714C38.0134 40.6489 40.6698 38.0134 40.6698 34.7505V19.6282H32.9936C33.1191 20.3394 33.2027 21.0505 33.2027 21.8035ZM34.7714 3H8.89832C5.63542 3 3 5.6145 3 8.8774V15.2359H12.5168C14.6084 12.3285 17.9759 10.4252 21.8244 10.4252C25.6521 10.4252 29.0614 12.3285 31.1321 15.2359H40.6489V8.8774C40.6489 5.6145 38.0134 3 34.7714 3ZM37.6579 10.2369C37.6579 10.8435 37.1768 11.3037 36.6121 11.3037H33.4537C32.889 11.3037 32.387 10.8435 32.387 10.2369V7.09954C32.387 6.51389 32.8681 6.05374 33.4537 6.05374H36.6121C37.1768 6.05374 37.6579 6.51389 37.6579 7.09954V10.2369ZM28.8104 21.8035C28.8104 17.934 25.6939 14.7966 21.8244 14.7966C17.955 14.7966 14.8176 17.934 14.8176 21.8035C14.8176 25.6939 17.955 28.8104 21.8244 28.8104C25.6939 28.8104 28.8104 25.6939 28.8104 21.8035Z"
          fill="white"/>
</svg>
