<svg width="44" height="44" viewBox="0 0 44 44" fill="none" xmlns="http://www.w3.org/2000/svg">
    <path fill-rule="evenodd" clip-rule="evenodd"
          d="M39.9377 24.9788C40.3351 24.2885 40.5861 23.4937 40.5861 22.6362C40.5861 20.0635 38.5154 17.9928 35.9009 17.9928C34.9179 17.9928 34.0185 18.3066 33.2655 18.8085C30.5673 17.5327 27.3044 16.7169 23.7487 16.4869C23.9579 15.3783 24.3134 14.1652 24.9827 13.2658C25.7357 12.2618 26.9907 11.4879 28.0992 10.9441C28.7685 11.4879 29.6052 11.8226 30.5464 11.8226C32.7217 11.8226 34.4786 10.0656 34.4786 7.89038C34.4577 5.75695 32.7008 4 30.5255 4C28.3711 4 26.6142 5.75695 26.6142 7.93221C26.6142 8.14137 26.6351 8.32962 26.6769 8.51786C24.9618 9.48 22.7238 10.7977 21.8663 11.7389C21.0715 12.5756 20.695 14.6672 20.5276 16.4869C16.8255 16.6542 13.4162 17.4699 10.6134 18.7876C9.81863 18.1811 8.83557 17.8046 7.74794 17.8046C5.11252 17.8046 3 19.938 3 22.5734C3 23.5147 3.29282 24.414 3.75298 25.1461C3.35557 26.0873 3.1255 27.0913 3.1255 28.1162C3.1255 34.5374 11.5337 39.8082 21.8872 39.8082C32.2615 39.8082 40.6279 34.5374 40.6279 28.1162C40.6279 27.0285 40.3769 25.9827 39.9377 24.9788ZM12.5168 25.7527C12.5168 24.0585 13.8973 22.6362 15.6333 22.6362C17.3484 22.6362 18.7498 24.0585 18.7498 25.7527C18.7498 27.4678 17.3484 28.8901 15.6333 28.8901C13.8973 28.8901 12.5168 27.4887 12.5168 25.7527ZM21.8453 36.6708C13.1443 36.6708 13.3325 31.9438 14.8594 31.9438C16.3026 31.9438 15.9679 33.5544 21.8663 33.5544C27.7437 33.5544 27.4299 31.9438 28.8313 31.9438C30.3582 31.9438 30.5255 36.6708 21.8453 36.6708ZM28.0783 28.8901C26.3632 28.8901 24.9618 27.4887 24.9618 25.7527C24.9618 24.0585 26.3632 22.6362 28.0783 22.6362C29.7934 22.6362 31.1739 24.0585 31.1739 25.7527C31.1948 27.4887 29.7934 28.8901 28.0783 28.8901Z"
          fill="white"/>
</svg>
