<svg width="44" height="44" viewBox="0 0 44 44" fill="none" xmlns="http://www.w3.org/2000/svg">
    <path d="M40.6489 10.6185C39.2475 11.225 37.7624 11.6434 36.1937 11.8316C37.7834 10.8695 39.0174 9.38443 39.5821 7.56473C38.118 8.46412 36.4656 9.0916 34.7087 9.44718C33.2864 7.94122 31.2785 7 29.0614 7C24.7945 7 21.3434 10.4721 21.3434 14.718C21.3434 15.3246 21.3852 15.9102 21.5316 16.475C15.1104 16.1612 9.44214 13.0866 5.6145 8.40137C4.94519 9.55176 4.5687 10.8695 4.5687 12.3127C4.5687 14.9899 5.94916 17.3534 7.99893 18.7339C6.74397 18.6921 5.53084 18.3365 4.50595 17.7718C4.50595 17.7927 4.50595 17.8345 4.50595 17.8554C4.50595 21.5994 7.18321 24.7159 10.6971 25.4479C10.0696 25.6153 9.37939 25.6989 8.66824 25.6989C8.16626 25.6989 7.68519 25.678 7.20412 25.5734C8.20809 28.6272 11.0527 30.8861 14.4202 30.9489C11.7847 32.9986 8.45908 34.2327 4.84061 34.2327C4.21313 34.2327 3.60656 34.2118 3 34.1281C6.40931 36.3243 10.467 37.6002 14.8385 37.6002C29.0405 37.6002 36.8003 25.8244 36.8003 15.6383C36.8003 15.3037 36.7794 14.969 36.7794 14.6344C38.3063 13.5467 39.6031 12.1872 40.6489 10.6185Z"
          fill="white"/>
</svg>
