<svg id="Слой_1" data-name="Слой 1" xmlns="http://www.w3.org/2000/svg" viewBox="0 0 47.19 47">
    <defs>
        <style>.cls-1{fill:#fff;}</style>
    </defs>
    <title>Dota2</title>
    <path class="cls-1"
          d="M45.93,27.28H47.4c0,.56,0,1.09,0,1.62,0,.37.07.74.1,1.11a5.82,5.82,0,0,1,0,.59c0,.72-.12,1.43-.12,2.15,0,2.87,0,5.74,0,8.6,0,1.45,0,2.91,0,4.36,0,.15,0,.31,0,.52-.22-.09-.41-.15-.58-.23a7.26,7.26,0,0,0-3.31-.68,4.91,4.91,0,0,0-.86.08.42.42,0,0,0-.23.27c0,.16,0,.24.23.25s.2.13.3.19a3.32,3.32,0,0,1-2.23.35c-.86-.06-1.72-.14-2.58-.13a3.54,3.54,0,0,1-2-.43.24.24,0,0,0-.22,0,3.34,3.34,0,0,1-2.26.51c-1.33.05-2.66,0-4,.05a16.13,16.13,0,0,0-2.08.13,6,6,0,0,0-1.27.44c-.2.08-.39.21-.59.31a.68.68,0,0,1-1-.27.36.36,0,0,0-.47-.19,2.43,2.43,0,0,1-.89,0,4.49,4.49,0,0,1-.59-.19,1.13,1.13,0,0,0-1.51.47c-.45.56-.69.57-1.12,0-.3-.41-.55-.85-.82-1.28s-.42-.15-.56,0a.58.58,0,0,1-.74.11,1.85,1.85,0,0,0-.48-.08,7.12,7.12,0,0,1-1.63-.23,3.36,3.36,0,0,0-1.38,0c-.75,0-1.5.13-2.25.17a3,3,0,0,1-.65-.09,4.58,4.58,0,0,0-.9-.09,3.1,3.1,0,0,1-1.6-.08.27.27,0,0,0-.18,0,20.07,20.07,0,0,1-3.29.08,20.43,20.43,0,0,1-2.47.12A14.58,14.58,0,0,1,1,45.29a.34.34,0,0,1-.28-.41c.08-.69.18-1.39.2-2.08S.9,41.58.88,41C.83,39.68.76,38.39.78,37.1a1.72,1.72,0,0,1,.47-.94A1.91,1.91,0,0,0,1.77,35c.08-1.17.17-2.33.24-3.5a.78.78,0,0,0-.43-.75,1.36,1.36,0,0,1-.69-1.2C.84,28.3.77,27,.7,25.78c0-.21,0-.42,0-.65l.15-.05A1.36,1.36,0,0,0,2,23.61a1.87,1.87,0,0,0-.44-1.47,2.14,2.14,0,0,1-.38-2A6.34,6.34,0,0,0,1,16.67a16.55,16.55,0,0,1-.64-3.19A7.27,7.27,0,0,1,.5,11.3,18.48,18.48,0,0,0,1,6.86a11.58,11.58,0,0,0-.3-3.21A2.81,2.81,0,0,1,.93,1.74a.37.37,0,0,1,.27-.2c1.63,0,3.26-.08,4.89-.07s3.16.08,4.74.12c.43,0,.87,0,1.3,0a1.92,1.92,0,0,1,.6.28,1.12,1.12,0,0,0,.4.16c.76,0,1.51,0,2.26,0,.54,0,1.07,0,1.6,0A1,1,0,0,0,17.45,2,8.88,8.88,0,0,0,19.6.7a.39.39,0,0,1,.26-.09l2.77,0c.54,0,1.07-.07,1.6-.06.89,0,1.78.05,2.75.08l-.22.43c-.18.3-.13.4.22.44s.83.06,1.24.13a.45.45,0,0,1,.32.23.91.91,0,0,0,1.09.68A13.71,13.71,0,0,0,31,2.35c.08,0,.17-.14.19-.23s.05-.34.09-.51c.15-.67.37-.89,1.07-.9s1.3,0,1.94.05c.9,0,1.79.06,2.68.12s2,.19,3.05.27a.53.53,0,0,1,.56.53c0,.16.08.31.14.57.22-.16.41-.27.57-.41a2.45,2.45,0,0,0,.26-.37.45.45,0,0,1,.61-.19,2.43,2.43,0,0,0,1.47.25l1.74.07a1.31,1.31,0,0,1,.87.39,3.82,3.82,0,0,0,.77.43.5.5,0,0,1,.23.27,3.57,3.57,0,0,1-.13,2,1,1,0,0,0,0,.55A44.92,44.92,0,0,1,47.43,14c0,.52,0,1,0,1.57a.93.93,0,0,1-.65,1l-.25.11c-.44.21-.51.32-.32.76a.7.7,0,0,1-.15.82l-.09.1c-.64.76-.71.81-.08,1.56a5.61,5.61,0,0,1,1,4.19c0,.7-.11,1.41-.14,2.11a.45.45,0,0,1-.31.47C46,26.85,46,26.91,45.93,27.28ZM5.57,9.58a3.32,3.32,0,0,0,.42.7c1.45,1.5,2.92,3,4.39,4.48.59.6,1.19,1.2,1.77,1.82s1.31,1.47,2,2.18c1.23,1.27,2.51,2.51,3.74,3.79S20,24.93,21.13,26s2.08,2.09,3.08,3.17a12.92,12.92,0,0,0,2.27,2.1,2.51,2.51,0,0,1,.48.54c.18.24.32.52.52.74q2.43,2.66,4.88,5.3A2.69,2.69,0,0,0,34.1,39c1.47.13,2.93.27,4.4.38a1,1,0,0,0,1-.61,24,24,0,0,0,1.17-2.52c.42-1.17.74-2.37,1.05-3.56.19-.71.3-1.43.42-2.15a.34.34,0,0,0-.14-.29c-1.13-.82-2.26-1.63-3.4-2.42a4.12,4.12,0,0,0-.67-.32,3.09,3.09,0,0,1-.84-.39,16,16,0,0,0-2.3-1.68c-1.22-.75-2.36-1.64-3.55-2.44-1.65-1.11-3.33-2.19-5-3.29s-3.25-2.25-4.9-3.32a26.8,26.8,0,0,0-4.84-3,.32.32,0,0,1-.15-.09,2.41,2.41,0,0,0-1.25-.77,1.48,1.48,0,0,1-1-1.13.5.5,0,0,0-.23-.27c-.48-.31-1-.59-1.46-.89a18.12,18.12,0,0,1-2-1.31A2.08,2.08,0,0,0,8,8.56C7.23,8.92,6.43,9.22,5.57,9.58Zm13.1,28.16.06-.1L9.21,28.58l-.12.25C8.2,30.92,7.3,33,6.44,35.1a3.53,3.53,0,0,0-.18,1.26.8.8,0,0,0,.26.57c.36.32.77.58,1.15.88.57.45,1.14.89,1.69,1.38a1.78,1.78,0,0,0,1.43.55c.42,0,.84,0,1.26,0a6.11,6.11,0,0,0,1.49-.25A17.32,17.32,0,0,1,16,38.72a20.28,20.28,0,0,0,2.67-1ZM28.3,10.56a6.48,6.48,0,0,0,.54.53l1.63,1.24c1.3,1,2.58,2,3.88,3,.75.57,1.52,1.11,2.28,1.66a1,1,0,0,0,1,.21c.34-.14.32-.5.34-.82a9.16,9.16,0,0,1,.44-2.8,7.62,7.62,0,0,0,.37-2.33,1,1,0,0,0-.61-1.13,16.21,16.21,0,0,1-2-1.19,1.32,1.32,0,0,0-1.28-.12c-.94.35-1.94.54-2.91.8Z"
          transform="translate(-0.34 -0.57)"/>
</svg>