<?xml version="1.0" standalone="no"?>
<!DOCTYPE svg PUBLIC "-//W3C//DTD SVG 20010904//EN"
 "http://www.w3.org/TR/2001/REC-SVG-20010904/DTD/svg10.dtd">
<svg version="1.0" xmlns="http://www.w3.org/2000/svg"
 width="1104.000000pt" height="1104.000000pt" viewBox="0 0 1104.000000 1104.000000"
 preserveAspectRatio="xMidYMid meet">
<metadata>
Created by potrace 1.14, written by Peter Selinger 2001-2017
</metadata>
<g transform="translate(0.000000,1104.000000) scale(0.100000,-0.100000)"
fill="#000000" stroke="none">
<path d="M5125 9284 c-236 -45 -581 -110 -765 -144 -184 -34 -628 -117 -986
-185 -357 -68 -752 -142 -877 -165 -125 -22 -475 -87 -777 -145 -302 -58 -558
-105 -569 -105 -11 0 -25 -9 -31 -19 -7 -14 -10 -912 -10 -2829 0 -2662 1
-2811 18 -2830 17 -20 110 -57 1107 -437 921 -352 1907 -728 2600 -994 571
-218 740 -281 761 -281 11 0 82 22 159 49 296 106 1688 606 2355 847 223 80
486 174 585 209 99 34 299 107 445 160 146 53 346 126 445 160 362 127 440
157 458 177 16 19 17 171 17 2888 0 2718 -1 2868 -17 2882 -17 14 -718 153
-1353 268 -124 23 -517 97 -874 166 -357 68 -738 140 -845 160 -108 19 -453
84 -767 144 -314 61 -588 110 -610 109 -21 -1 -232 -39 -469 -85z m820 -69
c170 -31 566 -106 880 -166 313 -60 705 -134 870 -165 165 -30 568 -106 895
-169 327 -63 721 -137 875 -165 154 -28 289 -54 300 -57 14 -4 0 -11 -45 -21
-36 -7 -337 -78 -670 -157 -333 -79 -677 -160 -765 -179 -88 -19 -398 -92
-690 -161 -291 -69 -600 -141 -685 -160 -85 -19 -413 -95 -727 -169 -315 -75
-584 -136 -599 -136 -14 0 -233 50 -487 111 -254 61 -606 144 -782 184 -176
41 -500 117 -720 170 -220 53 -490 116 -600 141 -110 25 -461 108 -780 184
-319 76 -628 149 -688 162 -59 12 -107 25 -107 29 0 3 82 20 183 38 100 17
499 92 887 166 388 74 820 155 960 180 140 25 572 106 960 180 1019 194 1183
224 1205 220 11 -2 159 -29 330 -60z m-4316 -879 c218 -52 459 -109 536 -126
77 -17 374 -87 660 -155 286 -68 619 -146 740 -174 121 -27 465 -108 765 -179
300 -72 688 -163 862 -203 175 -40 323 -76 330 -80 10 -7 14 -623 18 -3081 3
-1690 5 -3074 4 -3076 -1 -1 -84 29 -185 69 -101 39 -312 120 -469 179 -157
59 -411 156 -565 215 -746 286 -902 346 -1190 455 -296 112 -460 175 -1140
436 -165 64 -409 156 -542 206 l-243 91 0 2758 c0 2107 3 2759 12 2759 6 0
190 -43 407 -94z m8131 -1984 l0 -157 -142 -40 c-79 -21 -171 -47 -205 -57
l-63 -19 0 -819 0 -818 -93 -31 c-50 -17 -95 -31 -100 -31 -4 0 -7 369 -7 821
0 777 -1 820 -17 815 -10 -3 -107 -32 -216 -65 l-197 -58 2 160 3 161 515 147
c283 81 516 148 518 148 1 1 2 -70 2 -157z m-1180 -336 l0 -163 -132 -38
c-102 -29 -759 -220 -860 -251 -17 -5 -18 -26 -18 -265 0 -232 2 -259 16 -259
9 0 109 29 223 64 113 36 276 85 361 111 85 25 163 48 173 51 16 5 17 -7 17
-156 l0 -160 -27 -11 c-16 -6 -192 -61 -393 -123 l-365 -113 -5 -433 -5 -433
-105 -33 c-58 -19 -106 -34 -107 -34 -2 0 -3 463 -3 1029 l0 1029 33 11 c17 6
131 37 252 70 165 45 926 263 943 270 1 1 2 -73 2 -163z m-1390 -1270 l0
-1034 -97 -33 c-54 -17 -104 -34 -110 -37 -10 -3 -13 34 -13 167 0 190 4 182
-70 156 -23 -8 -44 -15 -46 -15 -2 0 -4 38 -4 85 0 47 -4 85 -9 85 -5 0 -28
-7 -51 -15 -23 -8 -46 -15 -51 -15 -5 0 -9 36 -9 80 0 89 2 88 -72 65 l-48
-14 0 84 c0 95 2 94 -73 71 l-47 -14 0 84 c0 94 0 94 -70 69 -23 -8 -46 -15
-51 -15 -5 0 -9 38 -9 85 0 47 -4 85 -8 85 -5 0 -31 -7 -58 -15 -27 -8 -50
-15 -51 -15 -2 0 -3 38 -3 85 0 97 1 96 -85 67 l-50 -17 -3 -717 -2 -716 -120
-40 -120 -41 0 1074 0 1074 68 20 c37 11 91 26 120 35 l52 15 0 -84 c0 -46 4
-86 8 -89 5 -3 30 1 57 9 26 8 52 15 57 15 4 0 8 -38 8 -85 l0 -85 28 6 c15 4
37 11 50 15 13 5 28 9 33 9 5 0 9 -38 9 -85 0 -95 0 -95 70 -70 23 8 44 15 46
15 2 0 4 -38 4 -85 0 -91 3 -95 52 -76 13 4 35 11 51 15 l27 6 0 -85 c0 -47 4
-85 8 -85 5 0 31 7 58 15 27 8 50 15 52 15 1 0 2 -38 2 -85 0 -47 4 -85 8 -85
5 0 31 7 58 15 27 8 50 15 52 15 1 0 2 -38 2 -85 0 -47 1 -85 3 -85 1 0 29 9
62 19 l60 19 5 612 5 613 95 28 c52 15 101 28 108 28 9 1 12 -212 12 -1033z"/>
<path d="M2040 6344 l0 -86 -30 6 c-16 3 -43 9 -60 12 l-30 7 0 -87 c0 -47 -3
-86 -7 -86 -5 0 -29 7 -55 14 -25 8 -49 12 -52 9 -3 -4 -6 -334 -6 -734 l0
-727 58 -19 57 -20 5 -93 5 -93 58 -20 57 -19 0 -91 0 -92 407 -140 c223 -77
414 -141 424 -143 17 -3 19 4 19 87 0 50 2 91 3 91 2 0 29 -9 60 -19 30 -11
58 -17 61 -14 3 4 6 44 6 90 0 45 4 83 9 83 5 0 28 -7 51 -15 23 -8 46 -15 51
-15 5 0 8 205 7 477 l-3 476 -425 133 c-234 72 -428 129 -433 125 -4 -4 -6
-90 -5 -191 l3 -185 302 -95 303 -95 0 -182 0 -182 -57 20 c-31 10 -58 19 -60
19 -1 0 -3 -40 -3 -90 0 -49 -3 -90 -6 -90 -4 0 -137 43 -295 96 l-289 96 0
88 c0 98 -1 100 -72 120 l-48 13 0 543 0 544 28 -6 c15 -4 37 -11 50 -15 13
-5 27 -9 32 -9 5 0 11 40 12 89 l3 88 195 -57 c107 -31 266 -76 353 -101 l157
-44 0 -92 c0 -108 -9 -98 130 -137 52 -15 103 -29 113 -32 16 -5 17 9 17 190
l0 195 -60 17 -60 17 0 87 c0 58 -4 91 -12 97 -14 11 -930 273 -953 273 -12 0
-15 -17 -15 -86z"/>
<path d="M3640 5890 c0 -49 -4 -90 -8 -90 -5 0 -31 7 -58 15 -27 8 -52 15 -56
15 -5 0 -8 -42 -8 -94 l0 -94 -61 18 c-44 14 -61 15 -65 7 -2 -7 -3 -351 -2
-766 l3 -754 60 -22 60 -23 3 -95 3 -96 64 -21 65 -22 0 -97 0 -97 203 -69
c111 -37 317 -108 459 -157 141 -48 261 -88 267 -88 7 0 11 33 11 95 0 52 2
95 3 95 2 0 30 -9 62 -20 32 -11 60 -20 62 -20 1 0 3 43 3 95 0 52 2 95 3 95
2 0 30 -9 62 -20 32 -11 62 -20 67 -20 4 0 8 225 8 500 l0 499 -127 40 c-99
31 -606 185 -795 241 l-28 9 0 -199 0 -199 53 -15 c28 -9 176 -56 327 -104
l275 -89 3 -191 2 -191 -56 19 c-32 11 -61 20 -66 20 -4 0 -8 -43 -8 -96 0
-73 -3 -95 -12 -92 -7 3 -154 52 -325 109 l-313 104 0 95 0 96 -62 20 -63 20
-3 567 c-2 477 0 567 12 567 7 0 33 -7 56 -15 23 -8 46 -15 51 -15 5 0 9 43 9
95 l0 95 28 -7 c15 -3 189 -54 387 -113 l360 -106 5 -99 5 -99 125 -38 c69
-20 133 -38 143 -38 16 0 17 16 17 200 0 152 -3 202 -12 205 -7 2 -39 11 -70
20 l-58 16 0 99 0 99 -52 15 c-29 8 -170 47 -313 86 -143 39 -353 98 -467 131
-114 32 -214 59 -222 59 -13 0 -16 -15 -16 -90z"/>
</g>
</svg>
