<svg id="Слой_1" data-name="Слой 1" xmlns="http://www.w3.org/2000/svg" viewBox="0 0 137.74 118.43">
    <defs>
        <style>
            .cls-1,.cls-2{fill:#fff;}.cls-1,.cls-4{stroke:#fff;}.cls-1{stroke-miterlimit:10;}.cls-3{fill:#070809;}.cls-4{fill:none;stroke-linejoin:round;}
        </style>
    </defs>
    <title>logo_ggnft white-03</title>
    <path class="cls-1"
          d="M123.59,19.12V90.48a.07.07,0,0,1,0,.06l-55.08,19.8a.13.13,0,0,1-.18-.13L68.16,32a.07.07,0,0,1,0-.06l55.31-12.88A.06.06,0,0,1,123.59,19.12Z"/>
    <polygon class="cls-2"
             points="28.32 50.72 26.82 50.28 25.33 49.85 25.33 52.15 23.85 51.71 23.85 54 23.85 56.3 23.85 60.88 23.85 63.17 23.85 65.47 25.33 65.95 25.33 68.25 26.82 68.75 28.32 69.25 29.83 69.75 31.35 70.26 32.88 70.77 32.88 68.43 34.42 68.94 34.42 66.59 34.42 64.24 28.32 62.3 26.82 61.83 26.82 57.21 28.32 57.67 34.42 59.54 37.54 60.5 37.54 67.59 37.54 69.96 37.54 72.32 35.98 71.8 35.98 74.16 34.42 73.63 34.42 75.98 29.83 74.4 28.32 73.88 23.85 72.35 23.85 70.05 22.38 69.56 22.38 67.27 20.92 66.78 20.92 62.23 20.92 59.95 20.92 57.67 20.92 55.4 20.92 48.56 22.38 48.99 22.38 46.7 23.85 47.13 23.85 44.83 26.82 45.66 28.32 46.09 29.83 46.51 35.98 48.24 35.98 50.59 37.54 51.04 37.54 55.77 34.42 54.84 34.42 52.5 31.35 51.6 29.83 51.16 28.32 50.72"/>
    <polygon class="cls-2"
             points="48.8 56.68 47.16 56.2 45.52 55.73 45.52 58.13 43.91 57.66 43.91 60.05 43.91 62.45 43.91 67.25 43.91 69.64 43.91 72.04 45.52 72.58 45.52 74.98 47.16 75.52 48.8 76.07 50.45 76.62 52.12 77.18 53.8 77.74 53.8 75.29 55.49 75.84 55.49 73.38 55.49 70.92 48.8 68.8 47.16 68.28 47.16 63.45 48.8 63.95 55.49 66 58.91 67.05 58.91 74.48 58.91 76.96 58.91 79.44 57.19 78.87 57.19 81.33 55.49 80.76 55.49 83.22 50.45 81.49 48.8 80.92 43.91 79.24 43.91 76.84 42.3 76.3 42.3 73.91 40.7 73.37 40.7 68.61 40.7 66.23 40.7 63.85 40.7 61.47 40.7 54.32 42.3 54.79 42.3 52.4 43.91 52.86 43.91 50.46 47.16 51.37 48.8 51.83 50.45 52.3 57.19 54.19 57.19 56.66 58.91 57.15 58.91 62.1 55.49 61.09 55.49 58.63 52.12 57.65 50.45 57.16 48.8 56.68"/>
    <polygon class="cls-3"
             points="85.43 62.38 85.43 55.82 85.43 53.63 88.4 52.79 88.4 54.97 88.4 57.14 88.4 74.54 88.4 78.89 85.43 79.89 85.43 75.51 83.93 76.01 83.93 73.81 82.42 74.3 82.42 72.1 80.91 72.58 80.91 70.37 79.38 70.85 79.38 68.64 77.84 69.11 77.84 66.89 76.29 67.36 76.29 65.13 74.73 65.6 74.73 72.32 74.73 83.51 73.16 84.04 71.58 84.58 71.58 82.32 71.58 80.07 71.58 77.81 71.58 73.31 71.58 71.05 71.58 68.8 71.58 66.54 71.58 64.29 71.58 62.04 71.58 59.78 71.58 57.53 73.16 57.08 74.73 56.64 74.73 58.88 76.29 58.43 76.29 60.67 77.84 60.22 77.84 62.44 79.38 61.98 79.38 64.2 80.91 63.74 80.91 65.95 82.42 65.49 82.42 67.69 83.93 67.22 83.93 69.42 85.43 68.95 85.43 62.38"/>
    <polygon class="cls-3"
             points="90.18 56.63 90.18 54.46 90.18 52.29 91.64 51.88 93.08 51.47 97.38 50.26 105.73 47.91 105.73 52.1 104.36 52.49 102.98 52.9 100.2 53.71 98.8 54.12 97.38 54.53 94.53 55.36 93.08 55.78 93.08 62.23 102.98 59.21 102.98 63.43 93.08 66.54 93.08 77.3 91.64 77.79 90.18 78.29 90.18 76.12 90.18 73.95 90.18 71.79 90.18 67.46 90.18 65.29 90.18 63.12 90.18 60.96 90.18 58.79 90.18 56.63"/>
    <polygon class="cls-3"
             points="107.38 51.62 107.38 49.53 107.38 47.45 108.73 47.07 110.07 46.69 114.06 45.57 120.53 43.74 120.53 47.79 119.25 48.16 117.97 48.53 115.37 49.29 115.37 59.53 115.37 69.76 112.73 70.66 112.73 60.36 112.73 50.06 111.41 50.44 107.38 51.62"/>
    <path class="cls-4" d="M123.59,19,68.16,32l-55.31-13L68.22,8.51a1.28,1.28,0,0,1,.39,0Z"/>
    <polygon class="cls-4" points="68.29 110.4 12.85 89.21 12.85 18.91 68.16 31.95 68.29 110.4"/>
</svg>