<svg id="Слой_1" data-name="Слой 1" xmlns="http://www.w3.org/2000/svg" viewBox="0 0 138.13 124.43">
    <defs>
        <style>
            .cls-1,.cls-2{fill:#000005;}.cls-1,.cls-4{stroke:#000005;}.cls-1{stroke-miterlimit:10;}.cls-3{fill:#fff;}.cls-4{fill:none;stroke-linejoin:round;}
        </style>
    </defs>
    <title>logo_ggnft black</title>
    <path class="cls-1"
          d="M125.28,25.12V96.48a.05.05,0,0,1,0,.06l-55.08,19.8a.13.13,0,0,1-.18-.13L69.85,38a.06.06,0,0,1,.05-.06l55.31-12.88A.06.06,0,0,1,125.28,25.12Z"/>
    <polygon class="cls-2"
             points="30.01 56.72 28.51 56.28 27.02 55.85 27.02 58.15 25.54 57.71 25.54 60 25.54 62.3 25.54 66.88 25.54 69.17 25.54 71.47 27.02 71.95 27.02 74.25 28.51 74.75 30.01 75.25 31.52 75.75 33.05 76.26 34.58 76.77 34.58 74.43 36.12 74.94 36.12 72.59 36.12 70.24 30.01 68.3 28.51 67.83 28.51 63.21 30.01 63.67 36.12 65.54 39.24 66.5 39.24 73.59 39.24 75.96 39.24 78.32 37.67 77.8 37.67 80.16 36.12 79.63 36.12 81.98 31.52 80.4 30.01 79.88 25.54 78.35 25.54 76.05 24.07 75.56 24.07 73.27 22.61 72.78 22.61 68.23 22.61 65.95 22.61 63.67 22.61 61.4 22.61 54.56 24.07 54.99 24.07 52.7 25.54 53.13 25.54 50.83 28.51 51.66 30.01 52.09 31.52 52.51 37.67 54.24 37.67 56.59 39.24 57.04 39.24 61.77 36.12 60.84 36.12 58.5 33.05 57.6 31.52 57.16 30.01 56.72"/>
    <polygon class="cls-2"
             points="50.49 62.68 48.85 62.2 47.22 61.73 47.22 64.14 45.6 63.66 45.6 66.05 45.6 68.45 45.6 73.25 45.6 75.64 45.6 78.04 47.22 78.58 47.22 80.98 48.85 81.52 50.49 82.07 52.15 82.62 53.81 83.18 55.49 83.74 55.49 81.29 57.18 81.84 57.18 79.38 57.18 76.92 50.49 74.8 48.85 74.28 48.85 69.45 50.49 69.95 57.18 72 60.6 73.05 60.6 80.48 60.6 82.96 60.6 85.44 58.89 84.87 58.89 87.33 57.18 86.76 57.18 89.22 52.15 87.49 50.49 86.92 45.6 85.24 45.6 82.84 43.99 82.3 43.99 79.91 42.4 79.37 42.4 74.61 42.4 72.23 42.4 69.85 42.4 67.47 42.4 60.32 43.99 60.79 43.99 58.4 45.6 58.86 45.6 56.46 48.85 57.37 50.49 57.83 52.15 58.3 58.89 60.19 58.89 62.66 60.6 63.15 60.6 68.1 57.18 67.09 57.18 64.63 53.81 63.65 52.15 63.16 50.49 62.68"/>
    <polygon class="cls-3"
             points="87.13 68.38 87.13 61.82 87.13 59.63 90.1 58.79 90.1 60.97 90.1 63.14 90.1 80.54 90.1 84.89 87.13 85.89 87.13 81.51 85.63 82.01 85.63 79.81 84.12 80.3 84.12 78.1 82.6 78.58 82.6 76.37 81.07 76.85 81.07 74.64 79.53 75.11 79.53 72.89 77.98 73.36 77.98 71.13 76.43 71.6 76.43 78.32 76.43 89.51 74.86 90.04 73.28 90.58 73.28 88.32 73.28 86.07 73.28 83.81 73.28 79.31 73.28 77.05 73.28 74.8 73.28 72.54 73.28 70.29 73.28 68.04 73.28 65.78 73.28 63.53 74.86 63.08 76.43 62.64 76.43 64.88 77.98 64.43 77.98 66.67 79.53 66.22 79.53 68.44 81.07 67.98 81.07 70.2 82.6 69.74 82.6 71.95 84.12 71.49 84.12 73.69 85.63 73.22 85.63 75.42 87.13 74.95 87.13 68.38"/>
    <polygon class="cls-3"
             points="91.87 62.63 91.87 60.46 91.87 58.29 93.33 57.88 94.78 57.47 99.08 56.26 107.43 53.91 107.43 58.1 106.06 58.49 104.68 58.9 101.9 59.71 100.49 60.12 99.08 60.53 96.22 61.36 94.78 61.78 94.78 68.23 104.68 65.21 104.68 69.43 94.78 72.54 94.78 83.3 93.33 83.79 91.87 84.29 91.87 82.12 91.87 79.95 91.87 77.79 91.87 73.46 91.87 71.29 91.87 69.12 91.87 66.96 91.87 64.79 91.87 62.63"/>
    <polygon class="cls-3"
             points="109.07 57.62 109.07 55.53 109.07 53.45 110.42 53.07 111.77 52.69 115.75 51.57 122.23 49.74 122.23 53.79 120.95 54.16 119.66 54.53 117.06 55.29 117.06 65.53 117.06 75.76 114.43 76.66 114.43 66.36 114.43 56.06 113.1 56.44 109.07 57.62"/>
    <path class="cls-4" d="M125.28,25,69.85,38l-55.31-13,55.37-10.4a1.34,1.34,0,0,1,.4,0Z"/>
    <polygon class="cls-4" points="69.98 116.4 14.54 95.21 14.54 24.91 69.85 37.95 69.98 116.4"/>
</svg>